<svg xmlns="http://www.w3.org/2000/svg" width="30" height="30" viewBox="0 0 30 30">
  <path fill="#D8DFE5" fill-rule="evenodd" d="M0,3.00001915 C0,1.34315432 1.34731857,0 3.00001915,0 L26.9999809,0 C28.6568457,0 30,1.34731857 30,3.00001915 L30,26.9999809 C30,28.6568457 28.6526814,30 26.9999809,30 L3.00001915,30 C1.34315432,30 0,28.6526814 0,26.9999809 L0,3.00001915 Z M24,13.7713103 L20.2537865,13.7713103 L20.2537865,11.2803974 C20.2537865,10.3449389 20.8653332,10.1268474 21.296062,10.1268474 L23.9397274,10.1268474 L23.9397274,6.01440696 L20.2988685,6 C16.2571721,6 15.337402,9.06719106 15.337402,11.0300145 L15.337402,13.7713103 L13,13.7713103 L13,18.0089422 L15.337402,18.0089422 L15.337402,30 L20.2537865,30 L20.2537865,18.0089422 L23.5712313,18.0089422 L24,13.7713103 Z"/>
</svg>
