<svg xmlns="http://www.w3.org/2000/svg" width="30" height="30" viewBox="0 0 30 30">
  <path fill="#D8DFE5" fill-rule="evenodd" d="M0,3.00001915 C0,1.34315432 1.34731857,0 3.00001915,0 L26.9999809,0 C28.6568457,0 30,1.34731857 30,3.00001915 L30,26.9999809 C30,28.6568457 28.6526814,30 26.9999809,30 L3.00001915,30 C1.34315432,30 0,28.6526814 0,26.9999809 L0,3.00001915 Z M17.9023125,6.65025 C16.186375,7.28896429 15.1021875,8.93553571 15.2250937,10.7375357 L15.2666562,11.4327143 L14.5802812,11.3477143 C12.082375,11.0216786 9.89915625,9.91485714 8.04546875,8.05517857 L7.13940625,7.13292857 L6.9060625,7.81414286 C6.4120625,9.33260714 6.7279375,10.9366786 7.75690625,12.0155714 C8.306125,12.6117857 8.18203125,12.6967857 7.23559375,12.3416071 C6.9060625,12.2286786 6.6175,12.1430714 6.5901875,12.1855714 C6.49459375,12.2851429 6.82353125,13.5765357 7.0841875,14.08775 C7.44103125,14.7981071 8.168375,15.4926786 8.9651875,15.9049286 L9.63790625,16.2309643 L8.8416875,16.2449286 C8.073375,16.2449286 8.04546875,16.2588929 8.128,16.5576071 C8.4023125,17.4798571 9.48709375,18.4597857 10.6947813,18.8853929 L11.545625,19.1828929 L10.804625,19.6370357 C9.70678125,20.2909286 8.41596875,20.6594643 7.12515625,20.6867857 C6.50765625,20.70075 6,20.7578214 6,20.8009286 C6,20.9423929 7.67496875,21.7365357 8.6493125,22.0498214 C11.5735312,22.9720714 15.0469687,22.5743929 17.6553125,20.9994643 C19.509,19.8780714 21.3615,17.6498571 22.2271875,15.4920714 C22.6944687,14.3433571 23.1605625,12.2420357 23.1605625,11.2353929 C23.1605625,10.5821071 23.202125,10.4971071 23.9704375,9.71692857 C24.4240625,9.26278571 24.8491875,8.76614286 24.9317187,8.62407143 C25.0694687,8.35389286 25.054625,8.35389286 24.3551875,8.59553571 C23.1884687,9.02175 23.0234063,8.96467857 23.6005312,8.32596429 C24.0256562,7.87182143 24.5339062,7.04853571 24.5339062,6.8075 C24.5339062,6.765 24.3284687,6.83542857 24.0945312,6.96353571 C23.8475312,7.10439286 23.2983125,7.3175 22.88625,7.445 L22.14525,7.68664286 L21.4725313,7.21792857 C21.1014375,6.96292857 20.5807188,6.67878571 20.3058125,6.59378571 C19.6051875,6.39525 18.5340625,6.42317857 17.9023125,6.65025 Z"/>
</svg>
