<svg xmlns="http://www.w3.org/2000/svg" width="30" height="30" viewBox="0 0 30 30">
  <path fill="#D8DFE5" fill-rule="evenodd" d="M0,3.00001915 C0,1.34315432 1.34731857,0 3.00001915,0 L26.9999809,0 C28.6568457,0 30,1.34731857 30,3.00001915 L30,26.9999809 C30,28.6568457 28.6526814,30 26.9999809,30 L3.00001915,30 C1.34315432,30 0,28.6526814 0,26.9999809 L0,3.00001915 Z M24.4509771,10.2284217 C24.2086597,9.17143289 23.347677,8.39161644 22.3111878,8.27529023 C19.8567536,8.00016951 17.3724895,7.99873339 14.899667,8.00016951 C12.4264358,7.99873339 9.94176304,8.00016951 7.48732887,8.27529023 C6.45145263,8.39161644 5.59108283,9.17143289 5.34876543,10.2284217 C5.00388198,11.7336869 5,13.3768203 5,14.9266055 C5,16.4763906 5,18.1193188 5.34488345,19.6243789 C5.58679222,20.6811625 6.44736633,21.460979 7.48385551,21.5775104 C9.93808538,21.8528362 12.4225538,21.8542724 14.895785,21.8528362 C17.3694247,21.8542724 19.8532803,21.8528362 22.3073058,21.5775104 C23.343182,21.4611842 24.2043691,20.6813677 24.4466865,19.6243789 C24.7917743,18.1191137 24.7930002,16.4761855 24.7930002,14.9266055 C24.7930002,13.3768203 24.7958606,11.7336869 24.4509771,10.2284217 Z M12.3422581,18.0114042 L12.3422581,11.4386656 C14.4399586,12.5377124 16.5237656,13.6293733 18.6347466,14.7351904 C16.5303037,15.8311597 14.4454751,16.9162555 12.3422581,18.0114042 Z"/>
</svg>
