<svg xmlns="http://www.w3.org/2000/svg" width="30" height="30" viewBox="0 0 30 30">
  <path fill="#D8DFE5" fill-rule="evenodd" d="M0,3.00001915 C0,1.34315432 1.34731857,0 3.00001915,0 L26.9999809,0 C28.6568457,0 30,1.34731857 30,3.00001915 L30,26.9999809 C30,28.6568457 28.6526814,30 26.9999809,30 L3.00001915,30 C1.34315432,30 0,28.6526814 0,26.9999809 L0,3.00001915 Z M23.5068234,11.9100739 C23.5068234,16.6414731 20.8362002,20.177226 16.8982304,20.177226 C15.5755789,20.177226 14.3322199,19.4730941 13.9064395,18.673153 C13.9064395,18.673153 13.1948063,21.4522758 13.0455499,21.9890697 C12.5151567,23.8842543 10.9552942,25.7800951 10.8346897,25.9362772 C10.7500667,26.0445547 10.5634962,26.0104309 10.5435065,25.8673733 C10.509524,25.6258817 10.1123954,23.233933 10.5801543,21.2829691 C10.8147,20.3032217 12.1553422,14.710196 12.1553422,14.710196 C12.1553422,14.710196 11.7648768,13.9397851 11.7648768,12.8018869 C11.7648768,11.0136674 12.8163348,9.6795572 14.1263261,9.6795572 C15.2404184,9.6795572 15.7781412,10.5024663 15.7781412,11.4900884 C15.7781412,12.5938628 15.0658417,14.2423059 14.697365,15.7700032 C14.3901901,17.0496465 15.3490291,18.0937042 16.6303685,18.0937042 C18.9505057,18.0937042 20.5130335,15.1577431 20.5130335,11.6803944 C20.5130335,9.03711063 18.7059651,7.05792895 15.416994,7.05792895 C11.7029088,7.05792895 9.38743585,9.78652225 9.38743585,12.8346983 C9.38743585,13.8859745 9.7026067,14.6275114 10.1956858,15.2003979 C10.4215694,15.4642012 10.4535529,15.5698538 10.3715951,15.8730309 C10.3116261,16.0954919 10.1783614,16.6290048 10.1210576,16.8409662 C10.0397662,17.1467682 9.78856238,17.2557019 9.50804034,17.1428308 C7.79758881,16.4551045 7,14.609137 7,12.5348024 C7.00066632,9.10863941 9.93448715,5 15.7534872,5 C20.4304094,5 23.5068234,8.33166623 23.5068234,11.9100739 Z"/>
</svg>
