<svg xmlns="http://www.w3.org/2000/svg" width="82" height="103" viewBox="0 0 82 103">
  <g fill="none" fill-rule="evenodd">
    <g transform="translate(20.349)">
      <path fill="#FFFFFF" d="M27.8655605,74.7801108 C34.8100127,71.7242553 39.6617519,64.8216356 39.6902911,56.7884767 L39.6904177,56.7884767 L39.6904177,54.5078642 L39.6904177,54.5078642 L0,54.5078642 L0,56.7884767 C0.0289472382,64.9098621 4.9875499,71.8757389 12.054417,74.8794006 C12.2353873,74.8478192 12.4019901,74.8079151 12.5488693,74.7531487 C13.4586813,74.4143874 13.7358272,74.677727 14.6182351,73.7792099 C14.7097644,73.6859778 15.4907772,71.9394668 16.4168489,71.223779 C15.6146432,71.6610428 15.2178341,72.0675932 14.6182351,72.1242958 C14.0186362,72.1813618 13.9208949,71.6592257 13.1091892,72.1242955 L14.0147992,71.2237793 C14.0147992,70.1491572 12.9752752,67.9861008 11.6003265,68.2214527 C12.7304663,67.5935448 12.6184754,66.304289 10.9941506,66.8044345 C11.0960933,66.2626708 11.4899798,65.8072331 11.6003265,65.2191261 L10.9965256,64.6188425 C9.89945316,63.6307281 7.50361509,65.2116748 6.44764864,64.2052047 C5.8372708,63.4110057 6.55306259,63.4439005 5.8935403,62.3761844 C7.48351884,63.0800592 8.08074278,62.5675555 9.59618252,62.4281618 C8.8142558,61.8580468 7.34467205,62.751657 6.73886154,61.9819928 C6.33985968,61.474396 6.76790975,61.2832067 6.61883213,60.9726149 C6.47249491,60.6665666 6.01338701,60.2238507 5.58314462,60.3552479 C7.13457491,58.596924 8.23201271,60.1135351 9.78928918,60.4155852 C8.75963055,59.4730873 7.77710675,59.2070215 7.76121244,58.3603 C7.74787584,57.6582426 8.28773412,57.4506968 7.37499911,57.1132077 C9.74507744,55.9342674 10.4453403,57.8692415 10.9965256,59.5148872 C12.0780691,59.7980364 10.4725616,58.2269036 10.6947165,57.4134403 C10.8631596,56.7975272 11.2791519,57.1041207 10.9965256,55.9120953 C12.2355506,55.9120953 12.5057537,56.3519034 12.5057537,57.4134403 C13.5328547,57.4134403 13.5553259,59.2301024 13.4109983,60.1153525 C12.9321596,63.0526166 16.0669915,66.6686755 19.0717458,67.0137977 C18.7472828,67.2178905 18.5234837,67.3785477 17.8582979,67.4723249 C18.5068586,67.475051 19.3686222,67.5424761 19.7489894,67.020522 C20.1642509,66.4504071 19.733095,65.8512139 20.0506158,65.2191261 C20.2415301,65.1075384 21.6177577,64.8214813 21.7317582,63.3984658 C21.3457275,63.755401 20.8038596,63.9749415 20.1240584,63.7975644 C18.2631459,63.3114128 19.288968,62.1646404 18.8148792,61.6283289 L19.2031022,61.5601768 C19.2411024,61.2345007 19.4771419,61.1436312 19.4314686,61.0149601 C19.7223162,61.834966 19.7621433,61.5587229 20.6418108,61.5601768 C21.3822662,61.5612672 21.7876623,61.3651709 22.3773958,61.9463719 C23.870547,63.4168214 25.2984767,60.6874666 23.6542383,59.9852275 C23.0497066,59.7271582 21.9772978,60.6507553 21.9663362,59.7882225 C20.813177,60.2178533 20.1300873,60.1126265 19.5913252,59.9018093 C19.4608822,60.0521074 19.5310364,60.1551534 19.4771419,60.3107219 C19.1157749,59.9735962 19.3203912,59.9138041 19.1042652,59.68972 C18.2300784,59.6557349 17.6014313,58.2965096 18.5848686,57.5630114 C18.6223207,57.3042152 18.4255601,56.9816287 18.4631949,56.722469 C19.0447072,56.5043823 20.3071169,56.4351398 20.8884466,56.5559962 C20.9478219,55.045019 24.6590507,55.5798766 25.5893242,55.8664788 C26.9523979,56.2868409 27.8722579,55.0591946 30.4566353,55.7572537 C28.9799265,56.0871098 30.5697224,58.0040917 27.8972869,58.0139056 C28.5758093,59.4387386 30.2678354,60.2081756 31.4376197,61.3062421 C31.0579833,61.2606256 29.1828986,60.8310403 28.6055882,60.5411668 C30.7012614,64.6931737 28.9691467,66.125625 31.7314672,67.8634124 C30.2911144,67.705663 28.8169642,67.2729574 28.5357995,67.2053505 C28.6876175,67.6342543 29.8732969,68.959043 30.3570684,69.313979 C29.7854215,69.1813096 28.7111849,68.9395027 28.4988954,68.7521299 C28.4495683,70.9213654 26.6169732,72.3598291 29.0033112,73.77921 C28.5476745,73.8560855 27.9506333,73.77921 27.2940341,73.3254079 C27.3786865,73.9393119 27.584049,74.4041153 27.8655605,74.7801108 Z M0,30.2763567 L19.1287753,30.2763567 L19.1287753,53.2250197 L0,53.2250197 L0,30.2763567 Z M5.52488091,40.7535388 C5.80306307,40.7269328 6.05962746,40.5480924 6.28763629,40.2219521 C6.4945636,39.9258853 6.67420895,39.516993 6.82161198,39.0066778 C6.96693702,38.5031974 7.04677195,38.0194549 7.0881306,37.7022833 L7.11343512,37.5082728 L7.30987195,37.416252 C7.70998504,37.228743 8.11314808,36.8229514 8.26782407,36.6572474 C8.31477987,36.6069693 8.36062966,36.5555577 8.40393223,36.5044795 C8.45196055,36.4478334 8.46560153,36.3698158 8.43969372,36.3003668 C8.41381943,36.2308511 8.35231771,36.1806398 8.27878377,36.1688704 C8.07876074,36.1368632 7.85655017,36.1278945 7.67697186,36.1450317 C7.39352769,36.1721712 7.16933968,36.2585574 7.02847226,36.3948881 L6.8265053,36.5907323 L6.58720161,36.4418654 C6.24916001,36.2315846 5.82695992,36.1204262 5.36611598,36.1204262 C5.27166811,36.1204262 5.1748406,36.1251606 5.07834826,36.134396 C4.3208884,36.206879 3.86426746,36.471072 3.6145068,36.6799858 L3.43452629,36.8306198 L3.19974725,36.7148937 C3.04158561,36.6370428 2.83107209,36.6089698 2.58395919,36.6325751 C2.34944828,36.6549802 2.13598536,36.7196948 1.9982014,36.7700395 C1.92828718,36.7955786 1.87757759,36.8565924 1.86547834,36.9296755 C1.8533791,37.0027587 1.88173357,37.0767087 1.93978315,37.1231859 C1.98201321,37.1570269 2.0259861,37.1908011 2.07036118,37.2236419 C2.20566496,37.3236978 2.68152404,37.6604738 3.12561003,37.7932705 L3.37258886,37.8671872 L3.43177798,38.0425601 C3.52954393,38.3323255 3.69216319,38.7709245 3.9119271,39.2147914 C4.15686147,39.709303 4.4139286,40.0937565 4.67588906,40.3575494 C4.93915663,40.6224759 5.20151928,40.7568729 5.45573756,40.7568729 C5.47889706,40.7568729 5.50222414,40.7557059 5.52488091,40.7535388 Z M16.146144,39.8070251 C15.9620075,39.4726496 15.4355394,39.2727378 14.9539156,39.1562115 C14.7261749,38.637161 14.1874735,38.2713451 13.5605581,38.2713451 C13.4791815,38.2713451 13.3961625,38.2778799 13.3135122,38.2908161 L13.153038,38.3159885 L13.0279566,38.2126985 C12.7535282,37.9859473 12.4024489,37.8610525 12.0394044,37.8610525 C11.8194729,37.8610525 11.6068814,37.9054625 11.4074617,37.9931489 L11.2623042,38.05703 L11.1170462,37.9931489 C10.9176265,37.9054958 10.7049679,37.8610525 10.4850029,37.8610525 C10.1445817,37.8610525 9.82299642,37.966743 9.55507013,38.1666881 L9.39258493,38.2879822 L9.20432599,38.2119983 C9.01801098,38.1369147 8.82023351,38.0988061 8.6162556,38.0988061 C8.34584914,38.0988061 8.08020193,38.1680218 7.84800361,38.299018 L7.79075841,38.3313586 C7.73840654,38.3608653 7.70163957,38.4115434 7.68994252,38.4702567 C7.6389648,38.7261811 7.57930645,38.9730702 7.51274383,39.2040223 C7.34368951,39.7895545 7.13015957,40.2693628 6.87801928,40.6301109 C6.52392355,41.1366919 6.09186978,41.417722 5.5941248,41.4653328 L5.57994757,41.4666331 C5.5101339,41.4727678 5.44812944,41.5136437 5.41538439,41.575291 C5.3825723,41.6369382 5.38347723,41.7109216 5.41759644,41.771802 C5.53835431,41.9865838 5.71803317,42.1704586 5.93726083,42.303622 L6.11871604,42.4138469 L6.10909697,42.6250946 C6.108125,42.6468995 6.10732062,42.6691046 6.10732062,42.6914763 C6.10732062,43.1576148 6.34776385,43.5840778 6.72491854,43.8492043 L6.72491854,46.0261958 C6.72491854,46.2560476 6.91284232,46.4429565 7.14386758,46.4429565 C7.37489284,46.4429565 7.56281662,46.2560476 7.56281662,46.0261958 L7.56281662,44.3017065 C7.75053931,44.5734345 8.02114687,44.7714792 8.33368286,44.872702 L8.33368286,46.9953479 C8.33368286,47.2251998 8.52160664,47.4121086 8.7526319,47.4121086 C8.98365715,47.4121086 9.17158094,47.2251998 9.17158094,46.9953479 L9.17158094,44.9106439 C9.26927985,44.8885723 9.36480023,44.8574319 9.45727067,44.816656 L9.64197692,44.7351376 L9.80794777,44.8497302 C10.0666237,45.0282371 10.3723559,45.1225918 10.6921313,45.1225918 C10.9589516,45.1225918 11.2214818,45.0551432 11.451267,44.927381 L11.6264883,44.829959 L11.801743,44.9273143 C12.0160103,45.0463079 12.258498,45.1123228 12.5063818,45.1209247 L12.5063818,46.0263291 C12.5063818,46.256181 12.694272,46.4430899 12.9253308,46.4430899 C13.1563561,46.4430899 13.3442799,46.256181 13.3442799,46.0263291 L13.3442799,44.9142447 C13.4595746,44.8470962 13.5665575,44.7648777 13.6620778,44.6677558 L13.7669492,44.5612317 L13.9169329,44.5604649 C13.9554092,44.5601981 13.9935503,44.5581977 14.0313563,44.5552637 L14.0313563,46.9955479 C14.0313563,47.2253998 14.2192466,47.4123087 14.4503053,47.4123087 C14.6813306,47.4123087 14.8692544,47.2253998 14.8692544,46.9955479 L14.8692544,44.2299903 C15.2038103,43.9659973 15.4175414,43.5677408 15.4175414,43.1240739 C15.4175414,42.8739508 15.3485656,42.6273618 15.2181886,42.4107129 L15.1073515,42.2269047 L15.2181886,42.0430299 C15.3486326,41.8265477 15.4175414,41.5798587 15.4175414,41.3297689 C15.4175414,40.9982273 15.302012,40.6865903 15.0833876,40.4286654 L14.95901,40.2818323 L14.9760696,40.2240192 C15.3066037,40.4775765 15.6905621,40.7341677 15.9381107,40.6084727 C16.0232076,40.5652296 16.0941273,40.4814107 16.1488253,40.3592831 C16.2385809,40.1589712 16.2376425,39.9732293 16.146144,39.8070251 Z M20.5616424,30.2763567 L39.6904177,30.2763567 L39.6904177,53.2250197 L20.5616424,53.2250197 L20.5616424,30.2763567 Z M29.9469217,36.9756558 C32.5583787,36.9756558 34.675383,36.3374902 34.675383,35.5502731 C34.675383,34.7630559 32.5583787,34.1248903 29.9469217,34.1248903 C27.3354646,34.1248903 25.2184603,34.7630559 25.2184603,35.5502731 C25.2184603,36.3374902 27.3354646,36.9756558 29.9469217,36.9756558 Z M28.3707679,47.8798342 C26.0421129,47.6732251 24.3189956,47.0202679 24.2199548,46.2375937 L24.2154534,46.2375937 L24.2174827,46.2142031 C24.2161326,46.1982947 24.2154534,46.1823343 24.2154534,46.1663246 C24.2154534,46.1173965 24.2217976,46.0689291 24.2342441,46.0209974 L25.0941304,36.1093783 C25.6748572,36.7715661 27.5962617,37.2576821 29.8770257,37.2576821 C32.3638887,37.2576821 34.4235113,36.6797419 34.7837848,35.92578 L35.6595989,46.0209965 C35.6720457,46.0689291 35.6783899,46.1173965 35.6783899,46.1663246 C35.6783899,46.1823343 35.6777107,46.1982947 35.6763606,46.2142031 L35.6783899,46.2375937 L35.6738885,46.2375937 C35.5768902,47.0041272 33.9221098,47.6462386 31.6663621,47.8664851 L31.6663621,43.0513263 C31.6663621,42.7376761 31.4093518,42.4825409 31.0923134,42.4825409 L28.9448166,42.4825409 C28.6266253,42.4825409 28.3707679,42.7371948 28.3707679,43.0513263 L28.3707679,47.8798342 Z M18.5263738,61.0228081 C18.8842524,60.8490859 19.3091916,60.5569492 18.6616846,60.1729523 C18.0141776,59.7889553 17.809727,60.3515392 17.1945939,60.0609318 C16.5794608,59.7703245 16.4173882,58.9986565 16.4173882,58.9986565 C16.4173882,58.9986565 15.9963218,60.4656597 17.0586112,60.9150086 C17.6830599,61.2473666 18.1684953,61.1965303 18.5263738,61.0228081 Z M23.4310924,57.2506253 C22.6016654,57.493792 21.656411,57.5346832 21.7013535,56.7515703 C21.8789313,56.5476593 22.1904231,56.2995857 22.5552614,56.4686028 C23.0982254,56.7204929 22.8775321,57.0405352 23.4310924,57.2506253 Z"/>
      <path fill="#FFFFFF" d="M5.2929377,27.2743491 C5.44023325,27.7169299 5.58811681,28.1616782 5.73541236,28.6066236 C15.0262041,27.214248 24.6603915,27.214248 33.9505953,28.6066236 C34.0993609,28.1616782 34.2498904,27.7169299 34.395716,27.2743491 C24.8141551,25.8382278 14.8762626,25.8382278 5.2929377,27.2743491 Z M18.4001836,22.9056869 C16.2286768,22.9346537 14.059816,23.0345595 11.8994812,23.2030397 C12.825003,23.450341 13.5088542,23.9782457 13.6008771,24.6515754 C13.6723199,25.1639128 13.4088931,25.6470865 12.9481903,26.0128166 C14.6031337,25.8924173 16.2683672,25.8163549 17.9336007,25.78325 C17.4049832,25.4630391 17.0445354,25.0100145 17.011019,24.4947213 C16.9669186,23.8202093 17.5334625,23.234174 18.4001836,22.9056869 Z M27.7924065,23.2030397 C25.6341298,23.0347565 23.4608589,22.9348507 21.28847,22.9056869 C22.1566612,23.2361446 22.7258512,23.8202093 22.6779287,24.4955095 C22.6452943,25.0129703 22.2854345,25.4640244 21.756817,25.7840382 C23.4202865,25.8195077 25.083756,25.8943878 26.7413454,26.0147871 C26.2853466,25.6468894 26.0189798,25.1648981 26.0901286,24.6535459 C26.1833275,23.9802162 26.8654147,23.450341 27.7924065,23.2030397 Z M31.7214638,25.1731743 C31.5818124,25.6811766 31.1322816,26.0938053 30.5398654,26.3639648 C31.6826554,26.4928374 32.8204474,26.6425976 33.9538293,26.8108807 C34.2622386,25.8778354 34.5738818,24.9426225 34.8872891,24.0072125 C33.4825424,23.7993217 32.0748555,23.6186242 30.6607007,23.4668935 C31.4577431,23.8720342 31.9010997,24.5081209 31.7214638,25.1731743 Z M9.03030503,23.4668935 C7.61556214,23.6188213 6.20787533,23.7995187 4.80401056,24.0072125 C5.11565384,24.9424254 5.42788512,25.8754708 5.73717638,26.8108807 C6.87114631,26.6406271 8.00923229,26.4908669 9.1511403,26.3639648 C8.56048809,26.0938053 8.11095736,25.6782208 7.97130589,25.1690362 C7.78843596,24.5081209 8.23502666,23.8720342 9.03030503,23.4668935 Z M32.2206811,21.0727011 L32.882482,21.5340019 C33.3834633,21.2096528 33.8359341,20.8906242 34.2331323,20.5800689 L33.5075326,20.1623168 C33.1320907,20.457502 32.6981421,20.762934 32.2206811,21.0727011 Z M35.6049507,15.6752659 L35.6049507,15.6896275 L36.5616368,15.6752659 C36.5616368,15.0409168 36.4531496,14.4163228 36.2344113,13.8169293 L35.3274118,14.0992838 C35.5120457,14.6051914 35.6049507,15.1381963 35.6049507,15.6752659 Z M35.2609671,17.4073288 C35.1445419,17.8419703 34.9199235,18.3075029 34.5956381,18.8017586 L35.4144367,19.259162 C35.7881146,18.6890336 36.0483074,18.1373315 36.1741407,17.6728829 L36.2173591,17.5615127 L35.3135936,17.2756356 L35.2609671,17.4073288 Z M6.18053304,20.1652975 L5.45493341,20.7411163 C5.85183758,21.1668157 6.30607236,21.604438 6.80440761,22.0515443 L7.46797259,21.4155694 C6.99139358,20.9882442 6.55832702,20.5682352 6.18053304,20.1652975 Z M4.36447593,14.0992838 L3.45806439,13.8169293 C3.23873808,14.4163228 3.12760491,15.0409168 3.12760491,15.6752659 L3.12760491,15.6896275 L4.08517299,15.6752659 C4.08546699,15.1381963 4.17837197,14.6051914 4.36447593,14.0992838 Z M4.37682406,17.2702162 L3.49922482,17.6216689 C3.64034631,18.1389573 3.90083305,18.6890336 4.27362897,19.259162 L5.0930156,18.8017586 C4.76755417,18.3104836 4.54499383,17.8416994 4.4276866,17.4073288 L4.37682406,17.2702162 Z M11.0909727,20.2138018 C11.4481865,20.6695793 11.8327425,21.1196663 12.2372908,21.5683985 L12.9722985,21.0023348 C12.5815684,20.5709449 12.2102425,20.1335936 11.8644949,19.6965133 L11.0909727,20.2138018 Z M15.2140721,7.82191064 L15.4598587,6.96996982 C14.7945297,6.80359207 14.1039164,6.77270108 13.4435855,6.87946466 L13.6026412,7.74766389 C14.1309647,7.66962351 14.6807505,7.69455308 15.2140721,7.82191064 Z M10.0543178,18.7762871 L10.8751744,18.3232194 C10.549713,17.8230022 10.2798182,17.3371466 10.075192,16.8786594 L9.19053672,17.2200861 C9.41456708,17.7159676 9.70474813,18.2419273 10.0543178,18.7762871 Z M9.57156473,15.3311295 C9.42103514,14.762356 9.34283032,14.2599711 9.32724816,13.7543344 L8.36997408,13.7835996 C8.38908428,14.3537279 8.47434518,14.9111205 8.63957492,15.541405 L9.57156473,15.3311295 Z M17.8465758,9.61033603 L18.624214,9.09657019 C18.2243698,8.58144949 17.7636669,8.1419304 17.2544536,7.79129063 L16.6808535,8.49636379 C17.1109801,8.79497664 17.5031802,9.16648137 17.8465758,9.61033603 Z M12.1023434,8.28419151 L11.496403,7.59835747 C10.9816036,7.91106094 10.5150207,8.30614037 10.1072384,8.76706636 L10.8484202,9.32445894 C11.1938738,8.93073439 11.590778,8.59906277 12.1023434,8.28419151 Z M9.96376486,10.6606295 L9.08910565,10.3053832 C8.83038293,10.8419108 8.6381049,11.4158328 8.51785764,12.0095358 L9.45749153,12.1723909 C9.56509666,11.6472442 9.73503045,11.1391688 9.96376486,10.6606295 Z M22.992512,8.51289318 L22.4124439,7.81052976 C21.9041125,8.16713094 21.4481137,8.60935976 21.0544436,9.12448047 L21.8373738,9.63038808 C22.1740074,9.19005607 22.5615034,8.81204797 22.992512,8.51289318 Z M30.1303191,15.2923803 L31.0546648,15.5080752 C31.2157785,14.9374049 31.3028034,14.3464116 31.3213256,13.7448504 L30.3628755,13.7204627 C30.3493514,14.2572613 30.2699706,14.7837629 30.1303191,15.2923803 Z M29.6375699,18.736183 C29.9803775,18.2015522 30.2699706,17.6758636 30.498117,17.1786271 L29.6161077,16.8399102 C29.4050134,17.2986684 29.1354126,17.7872337 28.8158312,18.2847411 L29.6375699,18.736183 Z M31.164622,11.9743092 C31.0405527,11.3792513 30.8468046,10.8066842 30.5863179,10.2709695 L29.7116587,10.6324482 C29.9412751,11.1039422 30.1132669,11.6112047 30.2249881,12.1398741 L31.164622,11.9743092 Z M28.8281794,9.30088425 L29.5631871,8.73915609 C29.1586389,8.28825611 28.699406,7.90672536 28.1957787,7.59835747 L28.0934656,7.53684648 L27.5724922,8.2771462 L27.6718652,8.33567648 C28.0934656,8.59283038 28.4809617,8.9193535 28.8281794,9.30088425 Z M26.0607283,7.74603805 L26.2141979,6.87512908 C25.5444588,6.77730763 24.8576676,6.81361809 24.1973366,6.98026682 L24.4531193,7.8305818 C24.9770329,7.69888866 25.5321107,7.66962351 26.0607283,7.74603805 Z M28.6082651,20.1766784 L27.8344489,19.658035 C27.4887013,20.0997219 27.1211974,20.5368022 26.7337013,20.9714438 L27.4734131,21.532901 C27.8732573,21.082543 28.2531093,20.6283913 28.6082651,20.1766784 Z"/>
      <path fill="#FFFFFF" d="M34.490091,7.42520538 C33.2232316,6.80955348 31.8111348,6.45782983 30.3722836,6.36569882 C30.0976847,6.14783609 29.8110317,5.93999938 29.5117366,5.7554664 C26.8016161,4.1136377 23.3238535,4.35507513 20.8030709,6.18577239 L20.8030709,4.48226373 C20.8030709,4.19816304 21.0291358,3.96785393 21.3225752,3.96785393 L22.7332004,3.96785393 C23.0201147,3.96785393 23.2527047,3.73730765 23.2527047,3.44828516 L23.2527047,2.72392688 C23.2527047,2.43697697 23.0266399,2.20435811 22.7332004,2.20435811 L21.3225752,2.20435811 C21.0356609,2.20435811 20.8030709,1.9746621 20.8030709,1.67257334 L20.8030709,0.862902774 C20.8030709,0.569206154 20.5683818,0.331118002 20.2800729,0.331118002 L19.4121088,0.331118002 C19.123265,0.331118002 18.8891108,0.560814008 18.8891108,0.862902774 L18.8891108,1.67257334 C18.8891108,1.96626996 18.6628832,2.20435811 18.3692324,2.20435811 L16.9575914,2.20435811 C16.6704705,2.20435811 16.437713,2.43490439 16.437713,2.72392688 L16.437713,3.44828516 C16.437713,3.73523507 16.6639406,3.96785393 16.9575914,3.96785393 L18.3692324,3.96785393 C18.6563533,3.96785393 18.8891108,4.20457208 18.8891108,4.49205687 L18.8891108,6.17981097 C16.3650942,4.35209442 12.8943877,4.11201186 10.1780931,5.7554664 C9.89026408,5.92997336 9.62066325,6.12697113 9.35870649,6.33643368 C7.81519024,6.36569882 6.29107821,6.73720355 4.93689995,7.43387653 C1.89220391,9.00850379 0,11.9978839 0,15.2324951 C0,16.165457 0.158761671,17.0900188 0.448060715,17.8975199 C0.852608973,19.5978789 2.08448194,21.3798009 3.64799039,23.0975022 C3.78293781,23.7090895 3.93082137,24.3149864 4.07811692,24.9265736 C14.4611302,22.7861536 25.2310515,22.7861536 35.6158288,24.9265736 C35.7613603,24.3176961 35.9118899,23.7090895 36.0577155,23.0975022 C36.0062649,23.0888311 35.9536384,23.0804309 35.9042458,23.0701339 C37.5150888,21.3854914 38.7787141,19.6463832 39.1941405,17.9915477 C39.5231299,17.0986899 39.6904177,16.1725023 39.6904177,15.2352049 C39.6904177,11.9892128 37.6997227,8.99847777 34.490091,7.42520538 Z M20.8033649,8.72506547 C22.7226171,6.36867953 25.9569452,5.71509134 28.4609695,7.23254319 C30.5245772,8.48796361 31.8034907,10.8993572 31.8034907,13.5259037 C31.8034907,14.291133 31.6935335,15.0468782 31.4577431,15.8416436 C31.070247,17.7606783 29.6096396,19.8769817 27.8265108,21.8518368 C25.9319549,21.6632393 24.0312249,21.56325 22.1272609,21.511765 C22.4853566,21.071704 22.7164431,20.5430346 22.7164431,19.9525833 C22.7164431,18.8039264 21.9161666,17.834925 20.8030709,17.4691107 L20.8030709,8.72506547 L20.8033649,8.72506547 L20.8033649,8.72506547 Z M19.8452088,19.0708354 C20.3738264,19.0708354 20.8033649,19.4664567 20.8033649,19.9523123 C20.8033649,20.4381679 20.3738264,20.8340602 19.8452088,20.8340602 C19.3162973,20.8340602 18.8876408,20.4381679 18.8876408,19.9509574 C18.8876408,19.463476 19.3162973,19.0708354 19.8452088,19.0708354 L19.8452088,19.0708354 Z M11.2312122,7.23389805 C12.164378,6.66729237 13.1722206,6.38087334 14.2279857,6.38087334 C16.0046464,6.38087334 17.6816401,7.24121434 18.8894048,8.7185621 L18.8894048,17.4674849 C17.7783671,17.8332992 16.9760327,18.8020296 16.9760327,19.9509574 C16.9760327,20.5397829 17.2047671,21.0684523 17.5605108,21.5085134 C15.6668369,21.5597274 13.7705169,21.6599876 11.8844871,21.8472303 C10.0890102,19.8539489 8.61252664,17.7116321 8.21709247,15.7641452 C7.99835417,15.0311618 7.88927902,14.2765005 7.88927902,13.5215682 C7.886927,10.9004411 9.16848649,8.48904751 11.2312122,7.23389805 L11.2312122,7.23389805 Z M2.29057811,17.4417424 C2.04008747,16.7244754 1.91307813,15.9825499 1.91307813,15.2352049 C1.91307813,12.6373815 3.43101611,10.2389947 5.87124179,8.97625794 C6.39456729,8.70826511 6.95199716,8.50476397 7.5255972,8.35762534 C6.94111905,9.24072812 6.50158442,10.2273428 6.24580173,11.2841396 L5.83713743,10.7969292 C5.28676364,11.1898408 4.80695059,11.6407408 4.40681238,12.1387902 L5.17739449,12.6612272 C5.45640342,12.3111293 5.795977,11.9968 6.16583289,11.7038776 C6.05028967,12.2981226 5.97267285,12.9042904 5.97267285,13.5242779 C5.97267285,14.4388136 6.10615026,15.3498267 6.35017283,16.1627473 C6.74560699,18.1134858 8.03775059,20.1766784 9.6635877,22.1230814 C8.36997408,22.2872913 7.0790065,22.4832052 5.79156695,22.710281 C4.06106474,20.9570822 2.69600837,19.1280108 2.29057811,17.4417424 L2.29057811,17.4417424 Z M37.3554451,17.5102987 C36.9400187,19.156463 35.5290979,20.9541015 33.729211,22.6831837 C32.50263,22.4688436 31.2748731,22.2829558 30.0406481,22.1257911 C31.6529611,20.1967304 32.9321686,18.1562997 33.3181946,16.2340133 C33.5816214,15.3609366 33.7150988,14.4485687 33.7150988,13.5242779 C33.7150988,12.9053743 33.637482,12.2997485 33.5231148,11.7071293 C33.8920887,11.9978839 34.2298982,12.3122132 34.5121412,12.6623111 L35.2809593,12.1385192 C34.8840551,11.6404698 34.39895,11.1898408 33.8515162,10.7966582 L33.4422639,11.2838686 C33.2002994,10.2706986 32.781639,9.32527186 32.2389093,8.47251812 C32.7010821,8.60881782 33.1535529,8.77113097 33.5939695,8.98465812 C36.1738467,10.2492916 37.7770456,12.642801 37.7770456,15.2349339 C37.7770456,15.9795692 37.6438622,16.7171592 37.3554451,17.5102987 L37.3554451,17.5102987 Z"/>
      <path d="M6.74969519,28.5179196 L4.55534006,23.0050121 C4.55534006,23.0050121 -0.808912189,17.3770244 1.71999634,11.5828973 C4.24890486,5.7887702 11.0750309,5.40310201 11.0750309,5.40310201 C11.0750309,5.40310201 12.0644005,4.43202165 14.087527,4.01215734 C16.1106536,3.59229303 17.1113559,4.12418414 17.1113559,4.12418414 L17.1113559,1.85365243 L19.3414693,1.85365243 L19.3414693,0.0721395262 L23.1082146,0.0721395262 L23.1082146,1.85365243 L25.3848079,1.85365243 L25.3848079,4.12418414 C25.3848079,4.12418414 26.9927993,3.64648132 28.8185538,4.04737348 C30.6443083,4.44826563 31.7052145,5.71250637 31.7052145,5.71250637 C31.7052145,5.71250637 37.3811083,5.92948711 39.9100187,10.6319677 C43.8373509,16.9007456 37.9136325,23.0050113 37.9136325,23.0050113 L36.0007359,28.5179196 L41.2097975,28.5179196 L41.2097975,52.8708531 C41.2097975,52.8708531 41.2560387,55.4961634 40.9209594,57.3768583 C40.1941533,64.617698 34.4883795,74.563938 21.5404937,74.563913 C8.59260798,74.563888 2.12365945,64.5628162 1.30043924,57.5629002 C1.00856621,56.1229695 1.06651498,52.9256978 1.06651498,52.9256978 L1.06651498,28.5179196 L6.74969519,28.5179196 Z"/>
    </g>
    <g fill="#FFFFFF" transform="translate(0 79.107)">
      <text font-family="Lato-Regular, Lato" font-size="6" letter-spacing=".37">
        <tspan x="9.387" y="6.108">AYUNTAMIENTO D</tspan> <tspan x="67.163" y="6.108">E</tspan>
      </text>
      <path d="M0.00193383518,9.73612996 L4.51592988,9.73612996 L4.51592988,11.3157763 L3.12136199,11.3157763 L3.12136199,22.0080649 L7.91977649,22.0080649 C8.01764139,22.0080649 8.11550482,21.9852379 8.21336973,21.9395831 C8.31123463,21.8939284 8.39992336,21.8345781 8.4794386,21.7615305 C8.55895383,21.6884829 8.62317671,21.6047838 8.67210916,21.5104306 C8.72104161,21.4160775 8.74550747,21.3202039 8.74550747,21.2228071 L8.74550747,19.4788045 L10.4887173,19.4788045 L10.4887173,23.5785804 L0.00193383518,23.5785804 L0.00193383518,22.0080649 L1.32310341,22.0080649 L1.32310341,11.3157763 L0.00193383518,11.3157763 L0.00193383518,9.73612996 Z M17.0853904,22.7020136 C16.7245136,23.0368151 16.3254143,23.3107395 15.8880805,23.5237949 C15.4507467,23.7368504 14.9537839,23.8433766 14.3971773,23.8433766 C13.932319,23.8433766 13.5056956,23.7703301 13.1172943,23.6242349 C12.728893,23.4781397 12.3940165,23.2787836 12.1126549,23.0261607 C11.8312933,22.7735377 11.6126297,22.4798299 11.4566575,22.1450285 C11.3006853,21.810227 11.2227004,21.4541253 11.2227004,21.0767127 C11.2227004,20.6749509 11.282336,20.3188492 11.4016088,20.0083969 C11.5208816,19.6979446 11.6799097,19.4285857 11.8786978,19.2003119 C12.0774859,18.9720382 12.3099116,18.7802911 12.5759818,18.625065 C12.842052,18.4698388 13.1203511,18.3450511 13.4108875,18.2506979 C13.701424,18.1563448 13.9980725,18.0893855 14.300842,18.049818 C14.6036116,18.0102506 14.8926145,17.9904671 15.1678596,17.9904671 C15.6082516,17.9904671 15.9782977,18.0041634 16.278009,18.0315562 C16.5777203,18.0589491 16.8499029,18.0969941 17.0945652,18.1456925 L17.10374,17.3695657 C17.10374,17.0347642 17.0548083,16.7441 16.9569434,16.4975643 C16.8590785,16.2510287 16.721458,16.0471072 16.5440779,15.8857938 C16.3666977,15.7244803 16.1541506,15.604258 15.9064301,15.5251231 C15.6587095,15.4459882 15.3819395,15.4064213 15.0761117,15.4064213 C14.7886335,15.4064213 14.5133926,15.4262048 14.2503807,15.4657722 C13.9873688,15.5053396 13.7411811,15.5570809 13.5118102,15.6209976 C13.2824393,15.6849142 13.0714213,15.7579607 12.8787498,15.8401393 C12.6860783,15.9223178 12.5224628,16.0090605 12.3878986,16.10037 L11.8282365,14.9224834 C12.0545491,14.7763882 12.3022659,14.6409478 12.5713944,14.5161582 C12.8405228,14.3913685 13.1234093,14.2848424 13.4200623,14.1965766 C13.7167153,14.1083107 14.0194803,14.0383078 14.3283664,13.9865658 C14.6372525,13.9348237 14.9415466,13.9089531 15.2412579,13.9089531 C15.7917479,13.9089531 16.2871816,13.9743906 16.7275736,14.1052675 C17.1679657,14.2361445 17.54107,14.4385441 17.8468979,14.7124726 C18.1527257,14.9864011 18.3882096,15.3348938 18.5533566,15.7579611 C18.7185036,16.1810285 18.8010759,16.6877886 18.8010759,17.2782566 L18.7919011,22.0080649 L19.8470018,22.0080649 L19.8470018,23.5785804 L17.0853904,23.5785804 L17.0853904,22.7020136 Z M14.7733436,22.4189556 C14.9996562,22.4189556 15.2259654,22.3915631 15.452278,22.3367774 C15.6785906,22.2819917 15.8926669,22.2074234 16.0945132,22.1130703 C16.2963596,22.0187171 16.4829118,21.9091474 16.6541753,21.7843577 C16.8254389,21.6595681 16.9691758,21.5302149 17.0853904,21.3962943 L17.0945652,19.2596628 L15.1128108,19.2596628 C14.7825168,19.2596628 14.4812809,19.296186 14.2090941,19.3692336 C13.9369074,19.4422812 13.7014235,19.5488074 13.5026354,19.6888153 C13.3038473,19.8288232 13.1494066,20.0023086 13.0393086,20.2092768 C12.9292106,20.416245 12.8741624,20.6536461 12.8741624,20.9214873 C12.8741624,21.1710666 12.9200359,21.3886843 13.0117842,21.574347 C13.1035326,21.7600096 13.2335074,21.9152334 13.4017127,22.0400231 C13.569918,22.1648127 13.7702323,22.2591644 14.0026614,22.3230811 C14.2350905,22.3869977 14.4919821,22.4189556 14.7733436,22.4189556 L14.7733436,22.4189556 Z M26.2785287,22.0080649 L27.5996983,22.0080649 L27.5996983,11.4801326 L26.2785287,11.4801326 L26.2785287,9.73612996 L30.6824273,9.73612996 L35.0955006,21.6884833 L39.5636227,9.73612996 L43.7381516,9.73612996 L43.7381516,11.4801326 L42.4261568,11.4801326 L42.4261568,22.0080649 L43.7381516,22.0080649 L43.7381516,23.5785804 L39.2241555,23.5785804 L39.2241555,22.0080649 L40.7104713,22.0080649 L40.7104713,11.3796927 L35.8478333,23.5785804 L34.2881192,23.5785804 L29.3612577,11.3523 L29.3612577,22.0080649 L30.7925247,22.0080649 L30.7925247,23.5785804 L26.2785287,23.5785804 L26.2785287,22.0080649 Z M51.0295181,14.1189639 L54.0938975,14.1189639 L54.0938975,22.0080649 L55.1489982,22.0080649 L55.1489982,23.5785804 L52.378212,23.5785804 L52.378212,22.7020136 C51.9500531,23.0307278 51.4836726,23.2863905 50.9790567,23.4690095 C50.4744408,23.6516285 49.9346628,23.7429366 49.3597065,23.7429366 C48.8826151,23.7429366 48.4498753,23.6744555 48.0614739,23.5374913 C47.6730726,23.4005271 47.3427835,23.1874748 47.0705968,22.898328 C46.79841,22.6091813 46.5889211,22.242427 46.4421237,21.7980541 C46.2953264,21.3536812 46.2219288,20.8240941 46.2219288,20.2092768 L46.2219288,15.6894793 L44.9374584,15.6894793 L44.9374584,14.1189639 L48.0018378,14.1189639 L48.0018378,20.0083969 C48.0018378,20.7327856 48.1700406,21.2806344 48.5064512,21.6519596 C48.8428618,22.0232849 49.3260625,22.2089448 49.9560678,22.2089448 C50.3291777,22.2089448 50.7221606,22.1419855 51.1350281,22.0080649 C51.5478957,21.8741443 51.9378203,21.6884844 52.3048137,21.4510797 L52.3048137,15.6894793 L51.0295181,15.6894793 L51.0295181,14.1189639 Z M58.6420022,19.0679138 C58.6420022,19.335755 58.6618807,19.5807651 58.7016383,19.8029516 C58.7413959,20.025138 58.7979732,20.2366685 58.8713719,20.4375494 C59.0976845,21.0462794 59.460085,21.5043418 59.9585844,21.8117505 C60.4570837,22.1191591 61.0213276,22.2728611 61.6513329,22.2728611 C62.1467739,22.2728611 62.6284455,22.20438 63.0963621,22.0674158 C63.5642787,21.9304515 64.0551249,21.7158774 64.5689157,21.423687 L65.2570248,22.5833118 C64.6331361,23.0094228 64.0061985,23.3259577 63.3761931,23.5329259 C62.7461878,23.739894 62.0917261,23.8433766 61.4127884,23.8433766 C60.7705499,23.8433766 60.1757238,23.7368504 59.628292,23.5237949 C59.0808602,23.3107395 58.6098924,22.9942046 58.2153745,22.5741809 C57.8208566,22.1541573 57.5119751,21.6306573 57.2887208,21.0036655 C57.0654665,20.3766736 56.9538411,19.6462086 56.9538411,18.8122485 C56.9538411,18.1365582 57.0486463,17.4989231 57.2382595,16.8993241 C57.4278727,16.2997251 57.7107592,15.7762252 58.0869275,15.3288086 C58.4630957,14.8813921 58.9294761,14.5268122 59.4860827,14.2650583 C60.0426894,14.0033044 60.6910346,13.8724295 61.4311379,13.8724295 C62.146775,13.8724295 62.7446595,13.9804774 63.2248091,14.1965766 C63.7049588,14.4126757 64.0964125,14.6987745 64.3991821,15.0548815 C64.7019516,15.4109886 64.931319,15.8173097 65.0872912,16.2738572 C65.2432634,16.7304047 65.3518307,17.1960761 65.4129962,17.6708855 C65.443579,17.9022029 65.4634575,18.1365604 65.4726324,18.3739651 C65.4818072,18.6113698 65.4863945,18.8426837 65.4863945,19.0679138 L58.6420022,19.0679138 Z M61.3118657,15.2968505 C60.9142895,15.2968505 60.5671802,15.3531572 60.2705272,15.4657722 C59.9738742,15.5783872 59.72157,15.7396983 59.5136071,15.9497101 C59.3056442,16.159722 59.1389705,16.4169065 59.0135811,16.7212715 C58.8881917,17.0256365 58.7949156,17.3665202 58.7337501,17.7439327 L63.6606116,17.7439327 C63.6361454,17.3908694 63.5795681,17.0652037 63.490878,16.766926 C63.4021879,16.4686483 63.2660966,16.209942 63.0825999,15.9907992 C62.8991032,15.7716564 62.6636193,15.6012146 62.3761412,15.4794686 C62.088663,15.3577226 61.7339081,15.2968505 61.3118657,15.2968505 L61.3118657,15.2968505 Z M67.0710425,9.37089381 L70.1537715,9.37089381 L70.1537715,22.0080649 L71.5850385,22.0080649 L71.5850385,23.5785804 L67.0710425,23.5785804 L67.0710425,22.0080649 L68.4472608,22.0080649 L68.4472608,10.9414093 L67.0710425,10.9414093 L67.0710425,9.37089381 Z M78.1791211,22.7020136 C77.8182442,23.0368151 77.4191449,23.3107395 76.9818111,23.5237949 C76.5444773,23.7368504 76.0475146,23.8433766 75.490908,23.8433766 C75.0260497,23.8433766 74.5994263,23.7703301 74.2110249,23.6242349 C73.8226236,23.4781397 73.4877472,23.2787836 73.2063856,23.0261607 C72.925024,22.7735377 72.7063604,22.4798299 72.5503882,22.1450285 C72.394416,21.810227 72.3164311,21.4541253 72.3164311,21.0767127 C72.3164311,20.6749509 72.3760666,20.3188492 72.4953395,20.0083969 C72.6146123,19.6979446 72.7736404,19.4285857 72.9724285,19.2003119 C73.1712165,18.9720382 73.4036422,18.7802911 73.6697124,18.625065 C73.9357826,18.4698388 74.2140817,18.3450511 74.5046182,18.2506979 C74.7951546,18.1563448 75.0918031,18.0893855 75.3945727,18.049818 C75.6973422,18.0102506 75.9863452,17.9904671 76.2615902,17.9904671 C76.7019823,17.9904671 77.0720284,18.0041634 77.3717396,18.0315562 C77.6714509,18.0589491 77.9436336,18.0969941 78.1882958,18.1456925 L78.1974706,17.3695657 C78.1974706,17.0347642 78.1485389,16.7441 78.050674,16.4975643 C77.9528091,16.2510287 77.8151887,16.0471072 77.6378085,15.8857938 C77.4604284,15.7244803 77.2478812,15.604258 77.0001607,15.5251231 C76.7524402,15.4459882 76.4756701,15.4064213 76.1698423,15.4064213 C75.8823642,15.4064213 75.6071233,15.4262048 75.3441113,15.4657722 C75.0810994,15.5053396 74.8349117,15.5570809 74.6055409,15.6209976 C74.37617,15.6849142 74.165152,15.7579607 73.9724804,15.8401393 C73.7798089,15.9223178 73.6161935,16.0090605 73.4816292,16.10037 L72.9219671,14.9224834 C73.1482797,14.7763882 73.3959965,14.6409478 73.665125,14.5161582 C73.9342535,14.3913685 74.21714,14.2848424 74.513793,14.1965766 C74.810446,14.1083107 75.113211,14.0383078 75.422097,13.9865658 C75.7309831,13.9348237 76.0352773,13.9089531 76.3349885,13.9089531 C76.8854786,13.9089531 77.3809122,13.9743906 77.8213043,14.1052675 C78.2616964,14.2361445 78.6348007,14.4385441 78.9406285,14.7124726 C79.2464563,14.9864011 79.4819402,15.3348938 79.6470872,15.7579611 C79.8122343,16.1810285 79.8948065,16.6877886 79.8948065,17.2782566 L79.8856318,22.0080649 L80.9407325,22.0080649 L80.9407325,23.5785804 L78.1791211,23.5785804 L78.1791211,22.7020136 Z M75.8670743,22.4189556 C76.0933869,22.4189556 76.3196961,22.3915631 76.5460087,22.3367774 C76.7723213,22.2819917 76.9863975,22.2074234 77.1882439,22.1130703 C77.3900902,22.0187171 77.5766424,21.9091474 77.747906,21.7843577 C77.9191696,21.6595681 78.0629065,21.5302149 78.1791211,21.3962943 L78.1882958,19.2596628 L76.2065415,19.2596628 C75.8762474,19.2596628 75.5750116,19.296186 75.3028248,19.3692336 C75.030638,19.4422812 74.7951541,19.5488074 74.5963661,19.6888153 C74.397578,19.8288232 74.2431373,20.0023086 74.1330392,20.2092768 C74.0229412,20.416245 73.967893,20.6536461 73.967893,20.9214873 C73.967893,21.1710666 74.0137665,21.3886843 74.1055149,21.574347 C74.1972632,21.7600096 74.3272381,21.9152334 74.4954434,22.0400231 C74.6636487,22.1648127 74.8639629,22.2591644 75.096392,22.3230811 C75.3288212,22.3869977 75.5857127,22.4189556 75.8670743,22.4189556 L75.8670743,22.4189556 Z"/>
    </g>
  </g>
</svg>
